STARTFONT 2.1
COMMENT $XConsortium: lubR18.bdf,v 1.9 94/04/02 16:10:59 gildea Exp $
COMMENT  (c) Copyright Bigelow & Holmes 1986, 1985. Lucida is a registered
COMMENT  trademark of Bigelow & Holmes. See LEGAL NOTICE file for terms 
COMMENT  of the license. 
COMMENT  
COMMENT  Translation to ISO8859-2 by Cub Soft;  Petr.Kolar@vslib.cz
COMMENT  
FONT -B&H-LucidaBright-Medium-R-Normal--18-180-75-75-P-103-ISO8859-2
SIZE 18 72 72
FONTBOUNDINGBOX 29 21 -11 -4
STARTPROPERTIES 20
COMMENT Begin LogicalFontDescription
FONTNAME_REGISTRY ""
FOUNDRY "B&H"
FAMILY_NAME "LucidaBright"
WEIGHT_NAME "Medium"
SLANT "R"
SETWIDTH_NAME "Normal"
ADD_STYLE_NAME ""
PIXEL_SIZE 18
POINT_SIZE 180
RESOLUTION_X 75
RESOLUTION_Y 75
SPACING "P"
AVERAGE_WIDTH 103
CHARSET_REGISTRY "ISO8859"
CHARSET_ENCODING "2"
COMMENT END LogicalFontDescription
FONT_ASCENT 16
FONT_DESCENT 4
DEFAULT_CHAR 0
COPYRIGHT "Copyright Bigelow & Holmes 1986, 1985., Copyright 1996 Cub Soft"
FACE_NAME "Lucida Bright"
ENDPROPERTIES
CHARS 191
STARTCHAR space
ENCODING 32
SWIDTH 333 0
DWIDTH 6 0
BBX 1 1 0 0
BITMAP
00
ENDCHAR
STARTCHAR exclam
ENCODING 33
SWIDTH 265 0
DWIDTH 5 0
BBX 2 13 1 0
BITMAP
c0
c0
c0
c0
c0
c0
80
80
80
80
00
c0
c0
ENDCHAR
STARTCHAR quotedbl
ENCODING 34
SWIDTH 386 0
DWIDTH 7 0
BBX 6 4 0 9
BITMAP
cc
cc
48
48
ENDCHAR
STARTCHAR numbersign
ENCODING 35
SWIDTH 608 0
DWIDTH 11 0
BBX 11 13 0 0
BITMAP
0480
0c80
0880
0900
7fe0
0900
1100
1200
ffc0
1200
2200
2600
2400
ENDCHAR
STARTCHAR dollar
ENCODING 36
SWIDTH 608 0
DWIDTH 11 0
BBX 7 15 2 -1
BITMAP
10
3e
d2
d2
d0
d0
70
38
1c
16
16
96
94
f8
10
ENDCHAR
STARTCHAR percent
ENCODING 37
SWIDTH 675 0
DWIDTH 12 0
BBX 13 13 0 0
BITMAP
7818
c430
8460
84c0
8480
7900
02f0
0588
0908
1908
3108
6108
c0f0
ENDCHAR
STARTCHAR ampersand
ENCODING 38
SWIDTH 690 0
DWIDTH 12 0
BBX 11 13 1 0
BITMAP
1e00
3300
3300
3300
1e00
3800
4ce0
cc40
c640
c740
c380
6380
3ce0
ENDCHAR
STARTCHAR apostrophe
ENCODING 39
SWIDTH 265 0
DWIDTH 5 0
BBX 2 5 1 8
BITMAP
c0
c0
40
40
80
ENDCHAR
STARTCHAR parenleft
ENCODING 40
SWIDTH 316 0
DWIDTH 6 0
BBX 4 16 1 -3
BITMAP
10
20
20
40
40
c0
c0
c0
c0
c0
c0
40
40
20
20
10
ENDCHAR
STARTCHAR parenright
ENCODING 41
SWIDTH 316 0
DWIDTH 6 0
BBX 4 16 1 -3
BITMAP
80
40
40
20
20
30
30
30
30
30
30
20
20
40
40
80
ENDCHAR
STARTCHAR asterisk
ENCODING 42
SWIDTH 470 0
DWIDTH 8 0
BBX 7 7 1 6
BITMAP
10
10
d6
28
28
28
44
ENDCHAR
STARTCHAR plus
ENCODING 43
SWIDTH 608 0
DWIDTH 11 0
BBX 11 11 0 0
BITMAP
0400
0400
0400
0400
0400
ffe0
0400
0400
0400
0400
0400
ENDCHAR
STARTCHAR comma
ENCODING 44
SWIDTH 265 0
DWIDTH 5 0
BBX 2 5 1 -3
BITMAP
c0
c0
40
40
80
ENDCHAR
STARTCHAR minus
ENCODING 45
SWIDTH 608 0
DWIDTH 11 0
BBX 10 1 0 5
BITMAP
ffc0
ENDCHAR
STARTCHAR period
ENCODING 46
SWIDTH 265 0
DWIDTH 5 0
BBX 2 2 1 0
BITMAP
c0
c0
ENDCHAR
STARTCHAR slash
ENCODING 47
SWIDTH 512 0
DWIDTH 9 0
BBX 9 16 0 -3
BITMAP
0080
0100
0100
0200
0200
0400
0400
0800
0800
1000
1000
2000
2000
4000
4000
8000
ENDCHAR
STARTCHAR zero
ENCODING 48
SWIDTH 608 0
DWIDTH 11 0
BBX 9 13 1 0
BITMAP
1c00
6300
4100
c180
c180
c180
c180
c180
c180
c180
4100
6300
1c00
ENDCHAR
STARTCHAR one
ENCODING 49
SWIDTH 608 0
DWIDTH 11 0
BBX 6 13 2 0
BITMAP
f0
30
30
30
30
30
30
30
30
30
30
30
fc
ENDCHAR
STARTCHAR two
ENCODING 50
SWIDTH 608 0
DWIDTH 11 0
BBX 8 13 1 0
BITMAP
7c
c6
83
83
03
06
0c
18
20
40
40
ff
ff
ENDCHAR
STARTCHAR three
ENCODING 51
SWIDTH 608 0
DWIDTH 11 0
BBX 8 13 1 0
BITMAP
fc
87
83
03
03
04
7c
07
03
03
83
c6
fc
ENDCHAR
STARTCHAR four
ENCODING 52
SWIDTH 608 0
DWIDTH 11 0
BBX 10 13 0 0
BITMAP
0300
0700
0f00
0b00
1300
2300
6300
c300
ffc0
0300
0300
0300
0fc0
ENDCHAR
STARTCHAR five
ENCODING 53
SWIDTH 608 0
DWIDTH 11 0
BBX 7 13 2 0
BITMAP
fe
fe
80
80
80
f0
0c
06
06
06
86
8c
f8
ENDCHAR
STARTCHAR six
ENCODING 54
SWIDTH 608 0
DWIDTH 11 0
BBX 9 13 1 0
BITMAP
1f00
2100
6100
c000
c000
de00
e300
c180
c180
c180
4180
6300
1e00
ENDCHAR
STARTCHAR seven
ENCODING 55
SWIDTH 608 0
DWIDTH 11 0
BBX 8 13 2 0
BITMAP
ff
ff
02
02
04
0c
08
10
30
30
20
60
60
ENDCHAR
STARTCHAR eight
ENCODING 56
SWIDTH 608 0
DWIDTH 11 0
BBX 9 13 1 0
BITMAP
3e00
6380
c180
c180
e300
3a00
3e00
4700
c180
c180
c180
6300
3e00
ENDCHAR
STARTCHAR nine
ENCODING 57
SWIDTH 608 0
DWIDTH 11 0
BBX 9 13 1 0
BITMAP
3c00
6300
c100
c180
c180
c180
6380
3d80
0180
0180
4300
4200
7c00
ENDCHAR
STARTCHAR colon
ENCODING 58
SWIDTH 265 0
DWIDTH 5 0
BBX 2 9 1 0
BITMAP
c0
c0
00
00
00
00
00
c0
c0
ENDCHAR
STARTCHAR semicolon
ENCODING 59
SWIDTH 265 0
DWIDTH 5 0
BBX 2 12 1 -3
BITMAP
c0
c0
00
00
00
00
00
c0
c0
40
40
80
ENDCHAR
STARTCHAR less
ENCODING 60
SWIDTH 608 0
DWIDTH 11 0
BBX 10 11 0 0
BITMAP
0040
0180
0600
0c00
3000
c000
3000
0c00
0700
0180
0040
ENDCHAR
STARTCHAR equal
ENCODING 61
SWIDTH 608 0
DWIDTH 11 0
BBX 10 4 0 3
BITMAP
ffc0
0000
0000
ffc0
ENDCHAR
STARTCHAR greater
ENCODING 62
SWIDTH 608 0
DWIDTH 11 0
BBX 10 11 0 0
BITMAP
8000
6000
3800
0c00
0300
00c0
0300
0c00
1800
6000
8000
ENDCHAR
STARTCHAR question
ENCODING 63
SWIDTH 480 0
DWIDTH 9 0
BBX 7 13 1 0
BITMAP
f8
8e
86
06
04
0c
18
30
30
30
00
30
30
ENDCHAR
STARTCHAR at
ENCODING 64
SWIDTH 873 0
DWIDTH 16 0
BBX 15 13 0 0
BITMAP
03f0
0c18
1004
23e2
4442
8442
88c2
88c6
894c
8678
4000
3080
1f00
ENDCHAR
STARTCHAR A
ENCODING 65
SWIDTH 744 0
DWIDTH 13 0
BBX 13 13 0 0
BITMAP
0200
0600
0700
0700
0980
0980
11c0
10c0
3fc0
2060
2060
4030
e0f8
ENDCHAR
STARTCHAR B
ENCODING 66
SWIDTH 609 0
DWIDTH 11 0
BBX 10 13 0 0
BITMAP
ff00
3380
3180
3180
3180
3200
3f00
3380
30c0
30c0
30c0
31c0
ff00
ENDCHAR
STARTCHAR C
ENCODING 67
SWIDTH 695 0
DWIDTH 12 0
BBX 10 13 1 0
BITMAP
1f80
30c0
6040
e040
c000
c000
c000
c000
c000
6000
6000
3040
1f80
ENDCHAR
STARTCHAR D
ENCODING 68
SWIDTH 768 0
DWIDTH 14 0
BBX 13 13 0 0
BITMAP
ff80
3060
3030
3018
3018
3018
3018
3018
3018
3010
3030
3060
ff80
ENDCHAR
STARTCHAR E
ENCODING 69
SWIDTH 566 0
DWIDTH 10 0
BBX 10 13 0 0
BITMAP
ffc0
3040
3040
3000
3000
3100
3f00
3100
3000
3000
3040
3040
ffc0
ENDCHAR
STARTCHAR F
ENCODING 70
SWIDTH 548 0
DWIDTH 10 0
BBX 9 13 0 0
BITMAP
ff80
3080
3080
3000
3000
3100
3f00
3100
3000
3000
3000
3000
f800
ENDCHAR
STARTCHAR G
ENCODING 71
SWIDTH 732 0
DWIDTH 13 0
BBX 13 13 1 0
BITMAP
0fc0
3860
6020
6000
c000
c000
c000
c1f8
c060
6060
6060
3860
0fc0
ENDCHAR
STARTCHAR H
ENCODING 72
SWIDTH 771 0
DWIDTH 14 0
BBX 14 13 0 0
BITMAP
fcfc
3030
3030
3030
3030
3030
3ff0
3030
3030
3030
3030
3030
fcfc
ENDCHAR
STARTCHAR I
ENCODING 73
SWIDTH 325 0
DWIDTH 6 0
BBX 6 13 0 0
BITMAP
fc
30
30
30
30
30
30
30
30
30
30
30
fc
ENDCHAR
STARTCHAR J
ENCODING 74
SWIDTH 422 0
DWIDTH 8 0
BBX 8 16 0 -3
BITMAP
3f
0c
0c
0c
0c
0c
0c
0c
0c
0c
0c
0c
0c
8c
98
f0
ENDCHAR
STARTCHAR K
ENCODING 75
SWIDTH 708 0
DWIDTH 13 0
BBX 12 13 1 0
BITMAP
fce0
30c0
3180
3300
3600
3400
3c00
3600
3700
3380
31c0
30e0
f9f0
ENDCHAR
STARTCHAR L
ENCODING 76
SWIDTH 557 0
DWIDTH 10 0
BBX 10 13 0 0
BITMAP
fc00
3000
3000
3000
3000
3000
3000
3000
3000
3000
3040
3040
ffc0
ENDCHAR
STARTCHAR M
ENCODING 77
SWIDTH 860 0
DWIDTH 15 0
BBX 15 13 0 0
BITMAP
f01e
3818
3838
3838
2c58
2c58
2658
2698
2798
2318
2318
2318
f87e
ENDCHAR
STARTCHAR N
ENCODING 78
SWIDTH 751 0
DWIDTH 14 0
BBX 14 13 0 0
BITMAP
f07c
3010
3810
2c10
2e10
2710
2390
2190
20d0
20f0
2070
2030
f810
ENDCHAR
STARTCHAR O
ENCODING 79
SWIDTH 777 0
DWIDTH 14 0
BBX 12 13 1 0
BITMAP
1f80
30c0
6060
6060
c030
c030
c030
c030
c030
6060
6060
30c0
1f80
ENDCHAR
STARTCHAR P
ENCODING 80
SWIDTH 573 0
DWIDTH 10 0
BBX 10 13 0 0
BITMAP
ff00
3180
30c0
30c0
30c0
30c0
3380
3f00
3000
3000
3000
3000
fc00
ENDCHAR
STARTCHAR Q
ENCODING 81
SWIDTH 778 0
DWIDTH 14 0
BBX 14 16 1 -3
BITMAP
1f80
30c0
6060
6060
c030
c030
c030
c030
c030
6070
6060
30c0
1f80
0180
0070
001c
ENDCHAR
STARTCHAR R
ENCODING 82
SWIDTH 679 0
DWIDTH 12 0
BBX 12 13 0 0
BITMAP
ff00
3180
30c0
30c0
30c0
3180
3f00
3300
3300
3180
31c0
30e0
f870
ENDCHAR
STARTCHAR S
ENCODING 83
SWIDTH 542 0
DWIDTH 10 0
BBX 8 13 1 0
BITMAP
3e
62
c2
c0
e0
78
3c
0e
03
03
83
86
fc
ENDCHAR
STARTCHAR T
ENCODING 84
SWIDTH 663 0
DWIDTH 12 0
BBX 12 13 0 0
BITMAP
fff0
8610
0600
0600
0600
0600
0600
0600
0600
0600
0600
0600
1f80
ENDCHAR
STARTCHAR U
ENCODING 85
SWIDTH 719 0
DWIDTH 13 0
BBX 13 13 0 0
BITMAP
fcf8
3020
3020
3020
3020
3020
3020
3020
3020
3020
3020
1840
0f80
ENDCHAR
STARTCHAR V
ENCODING 86
SWIDTH 699 0
DWIDTH 13 0
BBX 13 13 0 0
BITMAP
f838
6010
3030
3020
1820
1840
1c40
0c80
0c80
0680
0700
0300
0200
ENDCHAR
STARTCHAR W
ENCODING 87
SWIDTH 925 0
DWIDTH 17 0
BBX 17 13 0 0
BITMAP
f88780
60c100
70c200
31c200
31e200
316400
1a6400
1a6400
1a3c00
1c3800
0c3800
0c1800
081000
ENDCHAR
STARTCHAR X
ENCODING 88
SWIDTH 657 0
DWIDTH 12 0
BBX 12 13 0 0
BITMAP
f8f0
7060
3840
1880
0d00
0f00
0700
0b00
1b80
1180
20c0
40e0
f1f0
ENDCHAR
STARTCHAR Y
ENCODING 89
SWIDTH 678 0
DWIDTH 12 0
BBX 12 13 0 0
BITMAP
f870
7020
3040
38c0
1c80
0d00
0f00
0600
0600
0600
0600
0600
1f80
ENDCHAR
STARTCHAR Z
ENCODING 90
SWIDTH 633 0
DWIDTH 11 0
BBX 9 13 1 0
BITMAP
ff80
8380
8300
0600
0e00
0c00
1c00
1800
3000
7000
6080
c080
ff80
ENDCHAR
STARTCHAR bracketleft
ENCODING 91
SWIDTH 316 0
DWIDTH 6 0
BBX 4 16 1 -3
BITMAP
f0
c0
c0
c0
c0
c0
c0
c0
c0
c0
c0
c0
c0
c0
c0
f0
ENDCHAR
STARTCHAR backslash
ENCODING 92
SWIDTH 512 0
DWIDTH 9 0
BBX 9 16 0 -3
BITMAP
8000
4000
4000
2000
2000
1000
1000
0800
0800
0400
0400
0200
0200
0100
0100
0080
ENDCHAR
STARTCHAR bracketright
ENCODING 93
SWIDTH 316 0
DWIDTH 6 0
BBX 4 16 0 -3
BITMAP
f0
30
30
30
30
30
30
30
30
30
30
30
30
30
30
f0
ENDCHAR
STARTCHAR asciicircum
ENCODING 94
SWIDTH 608 0
DWIDTH 11 0
BBX 11 11 0 2
BITMAP
0400
0400
0a00
0a00
1100
1100
2080
2080
4040
4040
8020
ENDCHAR
STARTCHAR underscore
ENCODING 95
SWIDTH 500 0
DWIDTH 9 0
BBX 7 1 1 -1
BITMAP
fe
ENDCHAR
STARTCHAR grave
ENCODING 96
SWIDTH 602 0
DWIDTH 11 0
BBX 4 3 3 10
BITMAP
c0
20
10
ENDCHAR
STARTCHAR a
ENCODING 97
SWIDTH 543 0
DWIDTH 10 0
BBX 8 9 1 0
BITMAP
7c
46
46
06
3e
e6
c6
c6
7b
ENDCHAR
STARTCHAR b
ENCODING 98
SWIDTH 611 0
DWIDTH 11 0
BBX 11 13 0 0
BITMAP
f000
3000
3000
3000
3780
38c0
3060
3060
3060
3060
3060
38c0
2780
ENDCHAR
STARTCHAR c
ENCODING 99
SWIDTH 509 0
DWIDTH 9 0
BBX 7 9 1 0
BITMAP
3e
62
c2
c0
c0
c0
c0
60
3e
ENDCHAR
STARTCHAR d
ENCODING 100
SWIDTH 642 0
DWIDTH 12 0
BBX 11 13 1 0
BITMAP
0780
0180
0180
0180
3d80
6380
c180
c180
c180
c180
c180
6380
3de0
ENDCHAR
STARTCHAR e
ENCODING 101
SWIDTH 530 0
DWIDTH 10 0
BBX 8 9 1 0
BITMAP
3c
62
c3
c3
ff
c0
c0
61
3e
ENDCHAR
STARTCHAR f
ENCODING 102
SWIDTH 404 0
DWIDTH 7 0
BBX 7 14 1 0
BITMAP
1e
32
32
30
30
fc
30
30
30
30
30
30
30
f8
ENDCHAR
STARTCHAR g
ENCODING 103
SWIDTH 571 0
DWIDTH 10 0
BBX 10 12 0 -3
BITMAP
3fc0
7600
6300
6300
2300
1700
7e00
6000
3f80
c180
c180
7e00
ENDCHAR
STARTCHAR h
ENCODING 104
SWIDTH 633 0
DWIDTH 11 0
BBX 12 13 0 0
BITMAP
f000
3000
3000
3000
3780
38c0
30c0
30c0
30c0
30c0
30c0
30c0
fff0
ENDCHAR
STARTCHAR i
ENCODING 105
SWIDTH 307 0
DWIDTH 6 0
BBX 6 13 0 0
BITMAP
30
30
00
00
f0
30
30
30
30
30
30
30
fc
ENDCHAR
STARTCHAR j
ENCODING 106
SWIDTH 346 0
DWIDTH 6 0
BBX 5 16 0 -3
BITMAP
18
18
00
00
38
18
18
18
18
18
18
18
18
98
98
f0
ENDCHAR
STARTCHAR k
ENCODING 107
SWIDTH 599 0
DWIDTH 11 0
BBX 10 13 1 0
BITMAP
f000
3000
3000
3000
3180
3100
3200
3400
3c00
3600
3700
3380
f9c0
ENDCHAR
STARTCHAR l
ENCODING 108
SWIDTH 313 0
DWIDTH 6 0
BBX 6 13 0 0
BITMAP
f0
30
30
30
30
30
30
30
30
30
30
30
fc
ENDCHAR
STARTCHAR m
ENCODING 109
SWIDTH 946 0
DWIDTH 17 0
BBX 18 9 0 0
BITMAP
f79e00
38e300
30c300
30c300
30c300
30c300
30c300
30c300
ffffc0
ENDCHAR
STARTCHAR n
ENCODING 110
SWIDTH 633 0
DWIDTH 11 0
BBX 12 9 0 0
BITMAP
f780
38c0
30c0
30c0
30c0
30c0
30c0
30c0
fff0
ENDCHAR
STARTCHAR o
ENCODING 111
SWIDTH 602 0
DWIDTH 11 0
BBX 9 9 1 0
BITMAP
3e00
6300
c180
c180
c180
c180
c180
6300
3e00
ENDCHAR
STARTCHAR p
ENCODING 112
SWIDTH 642 0
DWIDTH 12 0
BBX 11 12 0 -3
BITMAP
f780
38c0
3060
3060
3060
3060
3060
38c0
3780
3000
3000
fc00
ENDCHAR
STARTCHAR q
ENCODING 113
SWIDTH 617 0
DWIDTH 11 0
BBX 11 12 1 -3
BITMAP
3d80
6380
c180
c180
c180
c180
c180
6380
3d80
0180
0180
07e0
ENDCHAR
STARTCHAR r
ENCODING 114
SWIDTH 440 0
DWIDTH 8 0
BBX 8 9 0 0
BITMAP
f7
39
31
30
30
30
30
30
fc
ENDCHAR
STARTCHAR s
ENCODING 115
SWIDTH 504 0
DWIDTH 9 0
BBX 7 9 1 0
BITMAP
7c
c4
c4
f0
7c
9e
86
c6
7c
ENDCHAR
STARTCHAR t
ENCODING 116
SWIDTH 392 0
DWIDTH 7 0
BBX 6 12 1 0
BITMAP
60
60
60
fc
60
60
60
60
60
60
60
3c
ENDCHAR
STARTCHAR u
ENCODING 117
SWIDTH 633 0
DWIDTH 11 0
BBX 12 9 0 0
BITMAP
f3c0
30c0
30c0
30c0
30c0
30c0
30c0
31c0
1ef0
ENDCHAR
STARTCHAR v
ENCODING 118
SWIDTH 545 0
DWIDTH 10 0
BBX 10 9 0 0
BITMAP
f1c0
6080
6080
3100
3100
1a00
1e00
0c00
0c00
ENDCHAR
STARTCHAR w
ENCODING 119
SWIDTH 795 0
DWIDTH 14 0
BBX 14 9 0 0
BITMAP
f11c
6308
6388
7398
35d0
34d0
38e0
1860
1060
ENDCHAR
STARTCHAR x
ENCODING 120
SWIDTH 557 0
DWIDTH 10 0
BBX 10 9 0 0
BITMAP
f1c0
7180
3300
1a00
0c00
1600
2700
4380
e3c0
ENDCHAR
STARTCHAR y
ENCODING 121
SWIDTH 551 0
DWIDTH 10 0
BBX 10 12 0 -3
BITMAP
f1c0
6080
7080
3100
3900
1a00
1e00
0c00
0c00
0800
1800
7000
ENDCHAR
STARTCHAR z
ENCODING 122
SWIDTH 595 0
DWIDTH 11 0
BBX 8 9 1 0
BITMAP
ff
86
8e
1c
18
30
71
e1
ff
ENDCHAR
STARTCHAR braceleft
ENCODING 123
SWIDTH 343 0
DWIDTH 6 0
BBX 5 16 0 -3
BITMAP
18
20
20
20
20
20
20
20
c0
20
20
20
20
20
20
18
ENDCHAR
STARTCHAR bar
ENCODING 124
SWIDTH 241 0
DWIDTH 4 0
BBX 1 16 2 -3
BITMAP
80
80
80
80
80
80
80
80
80
80
80
80
80
80
80
80
ENDCHAR
STARTCHAR braceright
ENCODING 125
SWIDTH 343 0
DWIDTH 6 0
BBX 5 16 1 -3
BITMAP
c0
20
20
20
20
20
20
20
18
20
20
20
20
20
20
c0
ENDCHAR
STARTCHAR asciitilde
ENCODING 126
SWIDTH 608 0
DWIDTH 11 0
BBX 11 4 0 3
BITMAP
7020
8c20
8620
81c0
ENDCHAR
STARTCHAR nobreakspace
ENCODING 160
SWIDTH 333 0
DWIDTH 6 0
BBX 1 1 0 0
BITMAP
00
ENDCHAR
STARTCHAR Aogonek
ENCODING 161
SWIDTH 744 0
DWIDTH 13 0
BBX 13 16 0 -3
BITMAP
0200
0600
0700
0700
0980
0980
11c0
10c0
3fc0
2060
2060
4030
e0f8
0200
0400
0700
ENDCHAR
STARTCHAR breve
ENCODING 162
SWIDTH 602 0
DWIDTH 11 0
BBX 6 3 2 10
BITMAP
84
78
78
ENDCHAR
STARTCHAR Lstroke
ENCODING 163
SWIDTH 557 0
DWIDTH 10 0
BBX 10 13 0 0
BITMAP
fc00
3000
3000
3000
3400
3c00
3000
f000
3000
3000
3040
3040
ffc0
ENDCHAR
STARTCHAR currency
ENCODING 164
SWIDTH 608 0
DWIDTH 11 0
BBX 10 11 0 1
BITMAP
8040
5e80
6180
6180
4080
4080
4080
6180
3300
5e80
8040
ENDCHAR
STARTCHAR Lcaron
ENCODING 165
SWIDTH 557 0
DWIDTH 10 0
BBX 10 14 0 0
BITMAP
0180
fd80
3080
3080
3100
3000
3000
3000
3000
3000
3000
3040
3040
ffc0
ENDCHAR
STARTCHAR Sacute
ENCODING 166
SWIDTH 542 0
DWIDTH 10 0
BBX 8 17 1 0
BITMAP
06
08
10
00
3e
62
c2
c0
e0
78
3c
0e
03
03
83
86
fc
ENDCHAR
STARTCHAR section
ENCODING 167
SWIDTH 608 0
DWIDTH 11 0
BBX 8 16 1 -3
BITMAP
3e
e2
c2
c0
60
38
de
c6
e2
7a
3c
0e
03
83
c7
7c
ENDCHAR
STARTCHAR diaeresis
ENCODING 168
SWIDTH 602 0
DWIDTH 11 0
BBX 5 2 3 11
BITMAP
d8
d8
ENDCHAR
STARTCHAR Scaron
ENCODING 169
SWIDTH 542 0
DWIDTH 10 0
BBX 8 17 1 0
BITMAP
42
24
18
00
3e
62
c2
c0
e0
78
3c
0e
03
03
83
86
fc
ENDCHAR
STARTCHAR Scedilla
ENCODING 170
SWIDTH 542 0
DWIDTH 10 0
BBX 8 16 1 -3
BITMAP
3e
62
c2
c0
e0
78
3c
0e
03
03
83
86
fc
30
18
38
ENDCHAR
STARTCHAR Tcaron
ENCODING 171
SWIDTH 663 0
DWIDTH 12 0
BBX 12 17 0 0
BITMAP
1080
0900
0600
0000
fff0
8610
0600
0600
0600
0600
0600
0600
0600
0600
0600
0600
1f80
ENDCHAR
STARTCHAR Zacute
ENCODING 172
SWIDTH 633 0
DWIDTH 11 0
BBX 9 17 1 0
BITMAP
0300
0400
0800
0000
ff80
8380
8300
0600
0e00
0c00
1c00
1800
3000
7000
6080
c080
ff80
ENDCHAR
STARTCHAR hyphen
ENCODING 173
SWIDTH 325 0
DWIDTH 6 0
BBX 4 1 1 5
BITMAP
f0
ENDCHAR
STARTCHAR Zcaron
ENCODING 174
SWIDTH 633 0
DWIDTH 11 0
BBX 9 17 1 0
BITMAP
2100
1200
0c00
0000
ff80
8380
8300
0600
0e00
0c00
1c00
1800
3000
7000
6080
c080
ff80
ENDCHAR
STARTCHAR Zabovedot
ENCODING 175
SWIDTH 633 0
DWIDTH 11 0
BBX 9 16 1 0
BITMAP
0c00
0c00
0000
ff80
8380
8300
0600
0e00
0c00
1c00
1800
3000
7000
6080
c080
ff80
ENDCHAR
STARTCHAR degree
ENCODING 176
SWIDTH 259 0
DWIDTH 5 0
BBX 3 3 1 10
BITMAP
e0
a0
e0
ENDCHAR
STARTCHAR aogonek
ENCODING 177
SWIDTH 543 0
DWIDTH 10 0
BBX 8 12 1 -3
BITMAP
7c
46
46
06
3e
e6
c6
c6
7b
10
20
38
ENDCHAR
STARTCHAR ogonek
ENCODING 178
SWIDTH 602 0
DWIDTH 11 0
BBX 3 3 4 -3
BITMAP
40
80
e0
ENDCHAR
STARTCHAR lstroke
ENCODING 179
SWIDTH 313 0
DWIDTH 6 0
BBX 6 13 0 0
BITMAP
f0
30
30
30
30
3c
70
f0
30
30
30
30
fc
ENDCHAR
STARTCHAR acute
ENCODING 180
SWIDTH 602 0
DWIDTH 11 0
BBX 4 3 4 10
BITMAP
30
40
80
ENDCHAR
STARTCHAR lcaron
ENCODING 181
SWIDTH 388 0
DWIDTH 7 0
BBX 7 14 0 0
BITMAP
06
f6
32
32
34
30
30
30
30
30
30
30
30
fc
ENDCHAR
STARTCHAR sacute
ENCODING 182
SWIDTH 504 0
DWIDTH 9 0
BBX 7 13 1 0
BITMAP
0c
10
20
00
7c
c4
c4
f0
7c
9e
86
c6
7c
ENDCHAR
STARTCHAR caron
ENCODING 183
SWIDTH 602 0
DWIDTH 11 0
BBX 6 3 2 10
BITMAP
84
48
30
ENDCHAR
STARTCHAR cedilla
ENCODING 184
SWIDTH 602 0
DWIDTH 11 0
BBX 3 3 4 -3
BITMAP
c0
60
e0
ENDCHAR
STARTCHAR scaron
ENCODING 185
SWIDTH 504 0
DWIDTH 9 0
BBX 7 13 1 0
BITMAP
84
48
30
00
7c
c4
c4
f0
7c
9e
86
c6
7c
ENDCHAR
STARTCHAR scedilla
ENCODING 186
SWIDTH 504 0
DWIDTH 9 0
BBX 7 12 1 -3
BITMAP
7c
c4
c4
f0
7c
9e
86
c6
7c
30
18
38
ENDCHAR
STARTCHAR tcaron
ENCODING 187
SWIDTH 392 0
DWIDTH 7 0
BBX 6 15 1 0
BITMAP
0c
0c
04
64
68
60
fc
60
60
60
60
60
60
60
3c
ENDCHAR
STARTCHAR zacute
ENCODING 188
SWIDTH 595 0
DWIDTH 11 0
BBX 8 13 1 0
BITMAP
06
08
10
00
ff
86
8e
1c
18
30
71
e1
ff
ENDCHAR
STARTCHAR doubleacute
ENCODING 189
SWIDTH 602 0
DWIDTH 11 0
BBX 5 3 4 10
BITMAP
38
50
a0
ENDCHAR
STARTCHAR zcaron
ENCODING 190
SWIDTH 595 0
DWIDTH 11 0
BBX 8 13 1 0
BITMAP
42
24
18
00
ff
86
8e
1c
18
30
71
e1
ff
ENDCHAR
STARTCHAR zabovedot
ENCODING 191
SWIDTH 595 0
DWIDTH 11 0
BBX 8 12 1 0
BITMAP
18
18
00
ff
86
8e
1c
18
30
71
e1
ff
ENDCHAR
STARTCHAR Racute
ENCODING 192
SWIDTH 679 0
DWIDTH 12 0
BBX 12 17 0 0
BITMAP
0300
0400
0800
0000
ff00
3180
30c0
30c0
30c0
3180
3f00
3300
3300
3180
31c0
30e0
f870
ENDCHAR
STARTCHAR Aacute
ENCODING 193
SWIDTH 744 0
DWIDTH 13 0
BBX 13 17 0 0
BITMAP
0180
0200
0400
0000
0200
0600
0700
0700
0980
0980
11c0
10c0
3fc0
2060
2060
4030
e0f8
ENDCHAR
STARTCHAR Acircumflex
ENCODING 194
SWIDTH 744 0
DWIDTH 13 0
BBX 13 17 0 0
BITMAP
0600
0900
1080
0000
0200
0600
0700
0700
0980
0980
11c0
10c0
3fc0
2060
2060
4030
e0f8
ENDCHAR
STARTCHAR Abreve
ENCODING 195
SWIDTH 744 0
DWIDTH 13 0
BBX 13 17 0 0
BITMAP
0840
0780
0780
0000
0200
0600
0700
0700
0980
0980
11c0
10c0
3fc0
2060
2060
4030
e0f8
ENDCHAR
STARTCHAR Adiaeresis
ENCODING 196
SWIDTH 744 0
DWIDTH 13 0
BBX 13 16 0 0
BITMAP
0d80
0d80
0000
0200
0600
0700
0700
0980
0980
11c0
10c0
3fc0
2060
2060
4030
e0f8
ENDCHAR
STARTCHAR Lacute
ENCODING 197
SWIDTH 557 0
DWIDTH 10 0
BBX 10 17 0 0
BITMAP
0c00
1000
2000
0000
fc00
3000
3000
3000
3000
3000
3000
3000
3000
3000
3040
3040
ffc0
ENDCHAR
STARTCHAR Cacute
ENCODING 198
SWIDTH 695 0
DWIDTH 12 0
BBX 10 17 1 0
BITMAP
0180
0200
0400
0000
1f80
30c0
6040
e040
c000
c000
c000
c000
c000
6000
6000
3040
1f80
ENDCHAR
STARTCHAR Ccedilla
ENCODING 199
SWIDTH 695 0
DWIDTH 12 0
BBX 10 16 1 -3
BITMAP
1f80
30c0
6040
e040
c000
c000
c000
c000
c000
6000
6000
3040
1f80
0400
0600
0e00
ENDCHAR
STARTCHAR Ccaron
ENCODING 200
SWIDTH 695 0
DWIDTH 12 0
BBX 10 17 1 0
BITMAP
1080
0900
0600
0000
1f80
30c0
6040
e040
c000
c000
c000
c000
c000
6000
6000
3040
1f80
ENDCHAR
STARTCHAR Eacute
ENCODING 201
SWIDTH 566 0
DWIDTH 10 0
BBX 10 17 0 0
BITMAP
0600
0800
1000
0000
ffc0
3040
3040
3000
3000
3100
3f00
3100
3000
3000
3040
3040
ffc0
ENDCHAR
STARTCHAR Eogonek
ENCODING 202
SWIDTH 566 0
DWIDTH 10 0
BBX 10 16 0 -3
BITMAP
ffc0
3040
3040
3000
3000
3100
3f00
3100
3000
3000
3040
3040
ffc0
0800
1000
1c00
ENDCHAR
STARTCHAR Ediaeresis
ENCODING 203
SWIDTH 566 0
DWIDTH 10 0
BBX 10 16 0 0
BITMAP
1b00
1b00
0000
ffc0
3040
3040
3000
3000
3100
3f00
3100
3000
3000
3040
3040
ffc0
ENDCHAR
STARTCHAR Ecaron
ENCODING 204
SWIDTH 566 0
DWIDTH 10 0
BBX 10 17 0 0
BITMAP
2100
1200
0c00
0000
ffc0
3040
3040
3000
3000
3100
3f00
3100
3000
3000
3040
3040
ffc0
ENDCHAR
STARTCHAR Iacute
ENCODING 205
SWIDTH 325 0
DWIDTH 6 0
BBX 6 17 0 0
BITMAP
18
20
40
00
fc
30
30
30
30
30
30
30
30
30
30
30
fc
ENDCHAR
STARTCHAR Icircumflex
ENCODING 206
SWIDTH 325 0
DWIDTH 6 0
BBX 6 17 0 0
BITMAP
30
48
84
00
fc
30
30
30
30
30
30
30
30
30
30
30
fc
ENDCHAR
STARTCHAR Dcaron
ENCODING 207
SWIDTH 768 0
DWIDTH 14 0
BBX 13 17 0 0
BITMAP
1080
0900
0600
0000
ff80
3060
3030
3018
3018
3018
3018
3018
3018
3010
3030
3060
ff80
ENDCHAR
STARTCHAR Dstroke
ENCODING 208
SWIDTH 768 0
DWIDTH 14 0
BBX 13 13 0 0
BITMAP
ffc0
3060
3030
3018
3018
3018
fe18
3018
3018
3010
3030
3060
ff80
ENDCHAR
STARTCHAR Nacute
ENCODING 209
SWIDTH 751 0
DWIDTH 14 0
BBX 14 17 0 0
BITMAP
00c0
0100
0200
0000
f07c
3010
3810
2c10
2e10
2710
2390
2190
20d0
20f0
2070
2030
f810
ENDCHAR
STARTCHAR Ncaron
ENCODING 210
SWIDTH 751 0
DWIDTH 14 0
BBX 14 17 0 0
BITMAP
0840
0480
0300
0000
f07c
3010
3810
2c10
2e10
2710
2390
2190
20d0
20f0
2070
2030
f810
ENDCHAR
STARTCHAR Oacute
ENCODING 211
SWIDTH 777 0
DWIDTH 14 0
BBX 12 17 1 0
BITMAP
0300
0400
0800
0000
1f80
30c0
6060
6060
c030
c030
c030
c030
c030
6060
6060
30c0
1f80
ENDCHAR
STARTCHAR Ocircumflex
ENCODING 212
SWIDTH 777 0
DWIDTH 14 0
BBX 12 17 1 0
BITMAP
0600
0900
1080
0000
1f80
30c0
6060
6060
c030
c030
c030
c030
c030
6060
6060
30c0
1f80
ENDCHAR
STARTCHAR Odoubleacute
ENCODING 213
SWIDTH 777 0
DWIDTH 14 0
BBX 12 17 1 0
BITMAP
0380
0500
0a00
0000
1f80
30c0
6060
6060
c030
c030
c030
c030
c030
6060
6060
30c0
1f80
ENDCHAR
STARTCHAR Odiaeresis
ENCODING 214
SWIDTH 777 0
DWIDTH 14 0
BBX 12 16 1 0
BITMAP
1b00
1b00
0000
1f80
30c0
6060
6060
c030
c030
c030
c030
c030
6060
6060
30c0
1f80
ENDCHAR
STARTCHAR multiply
ENCODING 215
SWIDTH 608 0
DWIDTH 11 0
BBX 10 11 0 0
BITMAP
8040
4080
2100
3300
1e00
0c00
1e00
1200
2100
4080
8040
ENDCHAR
STARTCHAR Rcaron
ENCODING 216
SWIDTH 679 0
DWIDTH 12 0
BBX 12 17 0 0
BITMAP
2100
1200
0c00
0000
ff00
3180
30c0
30c0
30c0
3180
3f00
3300
3300
3180
31c0
30e0
f870
ENDCHAR
STARTCHAR Uring
ENCODING 217
SWIDTH 719 0
DWIDTH 13 0
BBX 13 17 0 0
BITMAP
0700
0500
0700
0000
fcf8
3020
3020
3020
3020
3020
3020
3020
3020
3020
3020
1840
0f80
ENDCHAR
STARTCHAR Uacute
ENCODING 218
SWIDTH 719 0
DWIDTH 13 0
BBX 13 17 0 0
BITMAP
0180
0200
0400
0000
fcf8
3020
3020
3020
3020
3020
3020
3020
3020
3020
3020
1840
0f80
ENDCHAR
STARTCHAR Udoubleacute
ENCODING 219
SWIDTH 719 0
DWIDTH 13 0
BBX 13 17 0 0
BITMAP
01c0
0280
0500
0000
fcf8
3020
3020
3020
3020
3020
3020
3020
3020
3020
3020
1840
0f80
ENDCHAR
STARTCHAR Udiaeresis
ENCODING 220
SWIDTH 719 0
DWIDTH 13 0
BBX 13 16 0 0
BITMAP
0d80
0d80
0000
fcf8
3020
3020
3020
3020
3020
3020
3020
3020
3020
3020
1840
0f80
ENDCHAR
STARTCHAR Yacute
ENCODING 221
SWIDTH 678 0
DWIDTH 12 0
BBX 12 17 0 0
BITMAP
0300
0400
0800
0000
f870
7020
3040
38c0
1c80
0d00
0f00
0600
0600
0600
0600
0600
1f80
ENDCHAR
STARTCHAR Tcedilla
ENCODING 222
SWIDTH 663 0
DWIDTH 12 0
BBX 12 16 0 -3
BITMAP
fff0
8610
0600
0600
0600
0600
0600
0600
0600
0600
0600
0600
1f80
0c00
0600
0e00
ENDCHAR
STARTCHAR ssharp
ENCODING 223
SWIDTH 614 0
DWIDTH 11 0
BBX 9 14 1 0
BITMAP
1e00
3300
3300
3300
3200
3400
3600
3600
3300
3380
3180
3080
3480
f700
ENDCHAR
STARTCHAR racute
ENCODING 224
SWIDTH 440 0
DWIDTH 8 0
BBX 8 13 0 0
BITMAP
06
08
10
00
f7
39
31
30
30
30
30
30
fc
ENDCHAR
STARTCHAR aacute
ENCODING 225
SWIDTH 543 0
DWIDTH 10 0
BBX 8 13 1 0
BITMAP
0c
10
20
00
7c
46
46
06
3e
e6
c6
c6
7b
ENDCHAR
STARTCHAR acircumflex
ENCODING 226
SWIDTH 543 0
DWIDTH 10 0
BBX 8 13 1 0
BITMAP
18
24
42
00
7c
46
46
06
3e
e6
c6
c6
7b
ENDCHAR
STARTCHAR abreve
ENCODING 227
SWIDTH 543 0
DWIDTH 10 0
BBX 8 13 1 0
BITMAP
42
3c
3c
00
7c
46
46
06
3e
e6
c6
c6
7b
ENDCHAR
STARTCHAR adiaeresis
ENCODING 228
SWIDTH 543 0
DWIDTH 10 0
BBX 8 12 1 0
BITMAP
6c
6c
00
7c
46
46
06
3e
e6
c6
c6
7b
ENDCHAR
STARTCHAR lacute
ENCODING 229
SWIDTH 313 0
DWIDTH 6 0
BBX 6 17 0 0
BITMAP
18
20
40
00
f0
30
30
30
30
30
30
30
30
30
30
30
fc
ENDCHAR
STARTCHAR cacute
ENCODING 230
SWIDTH 509 0
DWIDTH 9 0
BBX 7 13 1 0
BITMAP
06
08
10
00
3e
62
c2
c0
c0
c0
c0
60
3e
ENDCHAR
STARTCHAR ccedilla
ENCODING 231
SWIDTH 509 0
DWIDTH 9 0
BBX 7 12 1 -3
BITMAP
3e
62
c2
c0
c0
c0
c0
60
3e
10
18
38
ENDCHAR
STARTCHAR ccaron
ENCODING 232
SWIDTH 509 0
DWIDTH 9 0
BBX 7 13 1 0
BITMAP
42
24
18
00
3e
62
c2
c0
c0
c0
c0
60
3e
ENDCHAR
STARTCHAR eacute
ENCODING 233
SWIDTH 530 0
DWIDTH 10 0
BBX 8 13 1 0
BITMAP
0c
10
20
00
3c
62
c3
c3
ff
c0
c0
61
3e
ENDCHAR
STARTCHAR eogonek
ENCODING 234
SWIDTH 530 0
DWIDTH 10 0
BBX 8 12 1 -3
BITMAP
3c
62
c3
c3
ff
c0
c0
61
3e
10
20
38
ENDCHAR
STARTCHAR ediaeresis
ENCODING 235
SWIDTH 530 0
DWIDTH 10 0
BBX 8 12 1 0
BITMAP
36
36
00
3c
62
c3
c3
ff
c0
c0
61
3e
ENDCHAR
STARTCHAR ecaron
ENCODING 236
SWIDTH 530 0
DWIDTH 10 0
BBX 8 13 1 0
BITMAP
42
24
18
00
3c
62
c3
c3
ff
c0
c0
61
3e
ENDCHAR
STARTCHAR iacute
ENCODING 237
SWIDTH 307 0
DWIDTH 6 0
BBX 6 13 0 0
BITMAP
18
20
40
00
f0
30
30
30
30
30
30
30
fc
ENDCHAR
STARTCHAR icircumflex
ENCODING 238
SWIDTH 307 0
DWIDTH 6 0
BBX 6 13 0 0
BITMAP
30
48
84
00
f0
30
30
30
30
30
30
30
fc
ENDCHAR
STARTCHAR dcaron
ENCODING 239
SWIDTH 722 0
DWIDTH 13 0
BBX 12 14 1 0
BITMAP
0030
07b0
0190
0190
01a0
3d80
6380
c180
c180
c180
c180
c180
6380
3de0
ENDCHAR
STARTCHAR dstroke
ENCODING 240
SWIDTH 722 0
DWIDTH 13 0
BBX 12 13 1 0
BITMAP
0780
0180
0ff0
0180
3d80
6380
c180
c180
c180
c180
c180
6380
3de0
ENDCHAR
STARTCHAR nacute
ENCODING 241
SWIDTH 633 0
DWIDTH 11 0
BBX 12 13 0 0
BITMAP
0300
0400
0800
0000
f780
38c0
30c0
30c0
30c0
30c0
30c0
30c0
fff0
ENDCHAR
STARTCHAR ncaron
ENCODING 242
SWIDTH 633 0
DWIDTH 11 0
BBX 12 13 0 0
BITMAP
2100
1200
0c00
0000
f780
38c0
30c0
30c0
30c0
30c0
30c0
30c0
fff0
ENDCHAR
STARTCHAR oacute
ENCODING 243
SWIDTH 602 0
DWIDTH 11 0
BBX 9 13 1 0
BITMAP
0600
0800
1000
0000
3e00
6300
c180
c180
c180
c180
c180
6300
3e00
ENDCHAR
STARTCHAR ocircumflex
ENCODING 244
SWIDTH 602 0
DWIDTH 11 0
BBX 9 13 1 0
BITMAP
1800
2400
4200
0000
3e00
6300
c180
c180
c180
c180
c180
6300
3e00
ENDCHAR
STARTCHAR odoubleacute
ENCODING 245
SWIDTH 602 0
DWIDTH 11 0
BBX 9 13 1 0
BITMAP
0700
0a00
1400
0000
3e00
6300
c180
c180
c180
c180
c180
6300
3e00
ENDCHAR
STARTCHAR odiaeresis
ENCODING 246
SWIDTH 602 0
DWIDTH 11 0
BBX 9 12 1 0
BITMAP
3600
3600
0000
3e00
6300
c180
c180
c180
c180
c180
6300
3e00
ENDCHAR
STARTCHAR division
ENCODING 247
SWIDTH 608 0
DWIDTH 11 0
BBX 10 9 0 0
BITMAP
0c00
0c00
0000
0000
ffc0
0000
0000
0c00
0c00
ENDCHAR
STARTCHAR rcaron
ENCODING 248
SWIDTH 440 0
DWIDTH 8 0
BBX 8 13 0 0
BITMAP
42
24
18
00
f7
39
31
30
30
30
30
30
fc
ENDCHAR
STARTCHAR uring
ENCODING 249
SWIDTH 633 0
DWIDTH 11 0
BBX 12 13 0 0
BITMAP
1c00
1400
1c00
0000
f3c0
30c0
30c0
30c0
30c0
30c0
30c0
31c0
1ef0
ENDCHAR
STARTCHAR uacute
ENCODING 250
SWIDTH 633 0
DWIDTH 11 0
BBX 12 13 0 0
BITMAP
0300
0400
0800
0000
f3c0
30c0
30c0
30c0
30c0
30c0
30c0
31c0
1ef0
ENDCHAR
STARTCHAR udoubleacute
ENCODING 251
SWIDTH 633 0
DWIDTH 11 0
BBX 12 13 0 0
BITMAP
0700
0a00
1400
0000
f3c0
30c0
30c0
30c0
30c0
30c0
30c0
31c0
1ef0
ENDCHAR
STARTCHAR udiaeresis
ENCODING 252
SWIDTH 633 0
DWIDTH 11 0
BBX 12 12 0 0
BITMAP
0d80
0d80
0000
f3c0
30c0
30c0
30c0
30c0
30c0
30c0
31c0
1ef0
ENDCHAR
STARTCHAR yacute
ENCODING 253
SWIDTH 551 0
DWIDTH 10 0
BBX 10 16 0 -3
BITMAP
0600
0800
1000
0000
f1c0
6080
7080
3100
3900
1a00
1e00
0c00
0c00
0800
1800
7000
ENDCHAR
STARTCHAR tcedilla
ENCODING 254
SWIDTH 392 0
DWIDTH 7 0
BBX 6 15 1 -3
BITMAP
60
60
60
fc
60
60
60
60
60
60
60
3c
60
30
70
ENDCHAR
STARTCHAR abovedot
ENCODING 255
SWIDTH 602 0
DWIDTH 11 0
BBX 2 2 4 11
BITMAP
c0
c0
ENDCHAR
ENDFONT
